<svg width="176" height="20" viewBox="0 0 176 20" fill="none" xmlns="http://www.w3.org/2000/svg"><g clip-path="url(#clip0_1245_692)"><path d="M12.2869 10.682C13.1595 9.52858 13.5908 8.12437 13.5908 6.51955C13.5908 4.79438 13.0893 3.30993 12.1063 2.09628C11.1033 0.842523 9.58877 0.220657 7.61284 0.220657H0V19.7392H3.49047V12.7884H5.13541L9.8997 19.6991L9.92979 19.7392H14.1424L9.10732 12.5978C10.4915 12.327 11.5547 11.6851 12.2869 10.682ZM10.0602 6.51955C10.0602 7.41223 9.80943 9.48846 7.4323 9.48846H3.49047V3.51053H7.54263C9.86961 3.51053 10.0501 5.80742 10.0501 6.50952L10.0602 6.51955Z" fill="#000"/><path d="M44.7849 7.39217L39.7197 0.260778L39.6896 0.220657H35.5371L43.0095 10.8726V19.7392H46.5501V10.8726L53.9925 0.381139L54.1128 0.220657H49.9303L44.7849 7.39217Z" fill="#000"/><path d="M84.9143 0C82.156 0 79.7989 0.982949 77.9133 2.91876C76.0176 4.87462 75.0547 7.26178 75.0547 10.01C75.0547 12.7583 76.0176 15.1153 77.9133 17.0812C79.7989 19.017 82.146 20 84.9042 20C87.6625 20 90.0396 19.0171 91.9253 17.0913C93.841 15.1454 94.814 12.7683 94.814 10.0201C94.814 7.27181 93.841 4.86459 91.9353 2.92879C90.0497 0.992979 87.6926 0 84.9143 0ZM91.3335 10.0201C91.3335 11.8556 90.7117 13.4403 89.4679 14.7242C88.2543 15.9779 86.7197 16.6199 84.9143 16.6199C83.1089 16.6199 81.5642 15.9779 80.3506 14.7242C79.1369 13.4504 78.5151 11.8656 78.5151 10.0201C78.5151 8.17452 79.1369 6.5998 80.3807 5.31595C81.6144 4.0321 83.1389 3.39017 84.9143 3.39017C86.6896 3.39017 88.2443 4.04213 89.4679 5.31595C90.7016 6.5998 91.3335 8.18455 91.3335 10.0201Z" fill="#000"/><path d="M133.1 0.220657H128.797L123.371 7.32196V0.220657H119.91V19.7392H123.371V12.5476L130.01 19.6991L130.041 19.7392H134.705L125.617 9.93981L133.1 0.220657Z" fill="#000"/><path d="M172.396 2.91876C170.521 0.982949 168.154 0 165.375 0C162.597 0 160.26 0.982949 158.374 2.92879C156.479 4.87462 155.516 7.26179 155.516 10.0201C155.516 12.7783 156.479 15.1354 158.374 17.0913C160.26 19.0271 162.607 20.01 165.365 20.01C168.123 20.01 170.501 19.0271 172.386 17.1013C174.302 15.1555 175.275 12.7783 175.275 10.0301C175.275 7.28185 174.332 4.89468 172.396 2.93882V2.91876ZM171.794 10.01C171.794 11.8455 171.173 13.4303 169.939 14.7141C168.725 15.9679 167.191 16.6098 165.385 16.6098C163.58 16.6098 162.035 15.9679 160.822 14.7141C159.608 13.4403 158.986 11.8556 158.986 10.01C158.986 8.16449 159.608 6.58977 160.852 5.30592C162.085 4.02207 163.61 3.38014 165.385 3.38014C167.161 3.38014 168.715 4.0321 169.939 5.30592C171.173 6.58977 171.794 8.17452 171.794 10.01Z" fill="#000"/></g><defs><clipPath id="clip0_1245_692"><rect width="175.276" height="20" fill="white"/></clipPath></defs></svg>